<svg width="242" height="243" viewBox="0 0 242 243" fill="none" xmlns="http://www.w3.org/2000/svg">
<path d="M75.7477 93.5216C75.7477 96.5385 76.5019 101.818 84.044 106.343C91.586 110.868 106.67 113.131 121 113.131C135.33 113.131 149.66 110.868 157.956 106.343C165.498 101.818 166.252 96.5384 166.252 92.7674C163.99 67.1244 157.202 60.3366 145.889 51.2861L143.626 49.7776C148.151 44.4982 151.168 37.7103 151.168 30.1682C151.168 13.5757 137.593 0 121 0C104.407 0 90.8318 13.5757 90.8318 30.1682C90.8318 37.7103 93.8486 44.4982 98.3738 49.7776L96.1111 51.2861C84.798 61.0908 78.0103 67.1245 75.7477 93.5216ZM105.916 63.3534L110.441 59.5824L116.475 69.387L105.916 97.2927C97.6196 95.7842 92.3402 94.2758 90.8318 92.7674C93.0944 73.9122 97.6196 70.8955 105.916 63.3534ZM151.168 92.7674C149.66 94.2758 144.38 95.7842 136.084 97.2927L125.525 69.387L131.559 59.5824L136.084 63.3534C145.889 70.8955 149.66 73.9122 151.168 92.7674ZM121.754 15.0841C130.051 15.0841 136.838 21.872 136.838 30.1682C136.838 38.4645 130.051 45.2523 121.754 45.2523C113.458 45.2523 106.67 38.4645 106.67 30.1682C106.67 21.872 112.704 15.0841 121.754 15.0841Z" fill="#5356D8"/>
<path d="M70.4681 180.256L68.2056 178.747C72.7309 173.468 75.7477 166.68 75.7477 159.138C75.7477 142.545 62.172 128.97 45.5795 128.97C28.9869 128.97 15.4113 142.545 15.4113 159.138C15.4113 166.68 18.4281 173.468 22.9533 178.747L20.6907 180.256C8.62338 189.306 1.83556 196.094 0.327148 222.491C0.327148 225.508 1.08128 230.787 8.62334 235.313C16.1654 239.838 31.2496 242.101 45.5795 242.101C59.9094 242.101 74.2392 239.838 82.5355 235.313C90.0775 230.787 90.8318 225.508 90.8318 221.737C89.3234 195.34 82.5354 189.306 70.4681 180.256ZM46.3336 143.3C54.6299 143.3 61.4177 150.087 61.4177 158.384C61.4177 166.68 54.6299 173.468 46.3336 173.468C38.0373 173.468 31.2495 166.68 31.2495 158.384C31.2495 150.087 37.2831 143.3 46.3336 143.3ZM30.4954 191.569L35.0205 187.798L41.0542 197.602L30.4954 225.508C22.1991 224 16.9197 222.491 15.4113 220.983C17.6739 202.128 22.1991 199.111 30.4954 191.569ZM60.6636 225.508L50.1046 197.602L56.1383 187.798L60.6636 191.569C69.714 198.357 73.4851 201.374 75.7477 220.983C74.2393 222.491 68.9598 224.754 60.6636 225.508Z" fill="#5356D8"/>
<path d="M221.309 180.256L219.047 178.747C223.572 173.468 226.589 166.68 226.589 159.138C226.589 142.545 213.013 128.97 196.421 128.97C179.828 128.97 166.252 142.545 166.252 159.138C166.252 166.68 169.269 173.468 173.794 178.747L171.532 180.256C159.464 189.306 152.677 196.094 151.168 222.491C151.168 225.508 151.922 230.787 159.465 235.313C167.007 239.838 182.091 242.101 196.421 242.101C210.75 242.101 225.08 239.838 233.377 235.313C240.919 230.787 241.673 225.508 241.673 221.737C240.164 195.34 233.376 189.306 221.309 180.256ZM197.175 143.3C205.471 143.3 212.259 150.087 212.259 158.384C212.259 166.68 205.471 173.468 197.175 173.468C188.879 173.468 182.091 166.68 182.091 158.384C182.091 150.087 188.124 143.3 197.175 143.3ZM181.336 191.569L185.862 187.798L191.895 197.602L181.336 225.508C173.04 224 167.761 222.491 166.252 220.983C168.515 202.128 173.04 199.111 181.336 191.569ZM211.505 225.508L200.946 197.602L206.979 187.798L211.505 191.569C220.555 198.357 224.326 201.374 226.589 220.983C225.08 222.491 219.801 224.754 211.505 225.508Z" fill="#5356D8"/>
<path d="M189.633 98.0471C189.633 102.572 188.878 107.098 188.124 111.623C187.37 115.394 189.632 119.919 194.158 120.673C194.912 120.673 194.912 120.673 195.666 120.673C199.437 120.673 202.454 118.411 203.208 114.64C203.962 109.36 204.717 103.327 204.717 98.0471C204.717 71.6499 192.649 47.5154 171.532 31.6771C168.515 29.4145 163.235 30.1688 160.973 33.1856C158.71 36.2024 159.464 41.4818 162.481 43.7445C179.074 57.3202 189.633 76.9293 189.633 98.0471Z" fill="#5356D8"/>
<path d="M158.71 164.417C157.202 160.646 152.677 159.137 148.906 160.646C146.643 161.4 144.38 162.154 142.118 162.908C127.034 167.434 109.687 166.68 94.6029 160.646C90.8318 159.137 86.3065 160.646 84.7981 164.417C83.2896 168.188 84.7981 172.713 88.5691 174.222C99.128 178.747 110.441 181.009 121.754 181.009C130.051 181.009 138.347 179.501 146.643 177.238C149.66 176.484 151.922 174.976 154.939 174.222C158.71 172.713 160.219 168.188 158.71 164.417Z" fill="#5356D8"/>
<path d="M47.0879 120.673C47.8421 120.673 47.842 120.673 48.5962 120.673C52.3673 119.919 55.3841 116.148 54.6299 111.623C53.8757 107.098 53.1215 102.572 53.1215 98.0471C53.1215 76.1751 62.9262 56.5659 80.273 43.7445C83.2898 41.4818 84.0438 36.2024 81.7812 33.1856C79.5186 30.1688 74.2392 29.4145 71.2224 31.6771C50.1047 47.5154 38.0374 71.6499 38.0374 98.0471C38.0374 103.327 38.7916 109.36 39.5458 114.64C41.0542 118.411 44.071 120.673 47.0879 120.673Z" fill="#5356D8"/>
</svg>
