<svg width="124" height="246" viewBox="0 0 124 246" fill="none" xmlns="http://www.w3.org/2000/svg">
<path d="M93.4859 73.3058C100.461 65.4594 104.82 55.8692 104.82 44.5354C104.82 20.1241 85.6394 0.943848 61.2282 0.943848C36.8169 0.943848 17.6366 20.1241 17.6366 44.5354C17.6366 55.8692 21.9958 65.4594 28.9705 73.3058C11.5338 88.127 2.81551 106.435 0.200012 140.437C0.200012 155.258 0.199985 171.823 19.3803 174.438L27.2268 211.927C32.4577 231.979 45.5352 245.057 62.1 245.057C78.6648 245.057 91.7422 231.979 96.9732 211.927L104.82 174.438C124 170.951 124 154.386 124 139.565C119.641 106.435 110.923 87.2551 93.4859 73.3058ZM61.2282 18.3805C76.0493 18.3805 87.3831 29.7143 87.3831 44.5354C87.3831 59.3565 76.0493 70.6903 61.2282 70.6903C46.4071 70.6903 35.0732 59.3565 35.0732 44.5354C35.0732 29.7143 46.4071 18.3805 61.2282 18.3805ZM96.1014 157.873C91.7423 157.873 88.2549 160.489 87.3831 164.848L78.6648 208.44C76.0493 220.645 69.0747 227.62 61.2282 227.62C53.3817 227.62 46.4071 219.773 43.7916 208.44L35.0732 164.848C34.2014 160.489 30.7141 157.873 26.3549 157.873C17.6366 157.873 17.6366 157.873 17.6366 141.309C20.2521 108.179 28.0986 95.9734 40.3042 86.3833C41.1761 85.5115 41.1761 85.5114 42.0479 84.6396C42.0479 84.6396 42.0479 83.7678 42.9197 83.7678C44.6634 84.6396 46.4071 85.5115 48.1507 85.5115L55.1254 96.8453L43.7916 125.616L61.2282 149.155L78.6648 125.616L67.331 96.8453L74.3056 85.5115C76.0493 84.6397 77.793 84.6396 79.5366 83.7678C79.5366 83.7678 79.5366 84.6396 80.4084 84.6396C81.2803 85.5114 81.2803 85.5115 82.1521 86.3833C94.3578 95.9734 102.204 108.179 104.82 140.437C104.82 157.873 104.82 157.873 96.1014 157.873Z" fill="#5356D8"/>
</svg>
